<?xml version="1.0" encoding="UTF-8" standalone="no"?>
<svg width="62px" height="62px" viewBox="0 0 62 62" version="1.1" xmlns="http://www.w3.org/2000/svg" xmlns:xlink="http://www.w3.org/1999/xlink" xmlns:sketch="http://www.bohemiancoding.com/sketch/ns">
    <!-- Generator: Sketch 3.3.3 (12081) - http://www.bohemiancoding.com/sketch -->
    <title>Red Circle Copy 2 + Path 7358 + Line + Line Copy 16 + Star 65 + Oval 553 Copy</title>
    <desc>Created with Sketch.</desc>
    <defs></defs>
    <g id="Page-1" stroke="none" stroke-width="1" fill="none" fill-rule="evenodd" sketch:type="MSPage">
        <g id="National_Landing_7" sketch:type="MSArtboardGroup" transform="translate(-97.000000, -1836.000000)">
            <g id="Group" sketch:type="MSLayerGroup" transform="translate(-22.000000, 88.000000)">
                <g id="State-Actions" transform="translate(93.000000, 1648.000000)" sketch:type="MSShapeGroup">
                    <g id="Red-Circle-Copy-2-+-Path-7358-+-Line-+-Line-Copy-16-+-Star-65-+-Oval-553-Copy" transform="translate(27.000000, 101.000000)">
                        <path d="M30,60 C46.5685425,60 60,46.5685425 60,30 C60,13.4314575 46.5685425,0 30,0 C13.4314575,0 0,13.4314575 0,30 C0,46.5685425 13.4314575,60 30,60 Z" id="Red-Circle-Copy-2" stroke="#FDB913" stroke-width="2" fill="#FDB913"></path>
                        <g id="Path-7358-+-Line-+-Line-Copy-16-+-Star-65-+-Oval-553-Copy" transform="translate(16.000000, 11.000000)">
                            <g id="Path-7358-+-Line-+-Line-Copy-16" transform="translate(6.644068, 22.117647)">
                                <path d="M0,0 L7.37639704e-16,17.4204763 L3.32204552,17.4204763 L7.59322034,14.1176471 L11.8644068,17.4117647 L15.6610169,17.4117647 L15.6610169,0" id="Path-7358" fill="#FFFFFF"></path>
                                <path d="M2.1559322,1.12273889 L2.1559322,17.462739" id="Line" stroke="#FDB913" stroke-linecap="square"></path>
                                <path d="M13.6059322,1.14794259 L13.6059322,17.4923383" id="Line-Copy-15" stroke="#FDB913" stroke-linecap="square"></path>
                            </g>
                            <g id="Star-65-+-Oval-553-Copy" stroke="#FDB913" fill="#FFFFFF">
                                <path d="M16.5897654,26.0662414 C15.1661872,26.3688323 15.2814563,27.7675598 13.9760743,27.7697914 C12.6706924,27.7720231 12.7907817,26.3728933 11.3682377,26.0751681 C9.94569365,25.777443 9.47751632,27.1037212 8.28589828,26.5788908 C7.09428024,26.0540603 7.77730447,24.8224082 6.60176549,23.9758463 C5.42622651,23.1292845 4.4555549,24.153788 3.58374234,23.1926433 C2.71192979,22.2314987 3.83978787,21.3802881 3.11451528,20.1312678 C2.38924269,18.8822475 1.08391474,19.4278303 0.682651985,18.1965621 C0.281389232,16.965294 1.65906424,16.641707 1.50946427,15.2061952 C1.35986429,13.7706834 -0.0544169405,13.7430092 0.084252082,12.454515 C0.222921105,11.1660207 1.61220052,11.4260084 2.06414036,10.0522182 C2.51608019,8.67842791 1.23738775,8.08228192 1.89201141,6.95935394 C2.54663508,5.83642596 3.70729987,6.63503415 4.68263501,5.56050625 C5.65797015,4.48597835 4.73596404,3.4244396 5.79335197,2.66124235 C6.8507399,1.89804509 7.58210058,3.09718714 8.91218672,2.50771723 C10.2422729,1.91824733 9.83637632,0.574865511 11.1136965,0.303362719 C12.3910167,0.031859927 12.5666144,1.42419328 14.0214676,1.42170607 C15.4763207,1.41921885 15.6567169,0.0262768907 16.9331092,0.29341386 C18.2095014,0.560550829 17.7989736,1.9053284 19.1270365,2.49025394 C20.4550993,3.07517948 21.1905962,1.8735297 22.2453606,2.63311602 C23.300125,3.39270234 22.3744558,4.45739988 23.3460942,5.52859923 C24.3177326,6.59979859 25.481156,5.79721714 26.1319143,6.91791344 C26.7826726,8.03860974 25.5019185,8.63913136 25.9491273,10.0113844 C26.3963362,11.3836375 27.7865196,11.118898 27.9207497,12.4069257 C28.0549799,13.6949534 26.6405949,13.7274635 26.4860478,15.1634952 C26.3315006,16.599527 27.7080688,16.9184053 27.3025611,18.1510528 C26.8970535,19.3837002 25.5935977,18.8425774 24.8640172,20.0940849 C24.1344366,21.3455924 25.2593683,22.1929516 24.3842388,23.1570828 C23.5091094,24.121214 22.5419621,23.1000235 21.3634993,23.9506097 C20.1850364,24.801196 20.8638208,26.0305199 19.6703873,26.5594279 C18.4769539,27.0883358 18.0133437,25.7636505 16.5897654,26.0662414 Z" id="Star-65" stroke-linecap="round" stroke-linejoin="round"></path>
                                <ellipse id="Oval-553" cx="14" cy="13.8823529" rx="9.85185185" ry="9.76906318"></ellipse>
                            </g>
                            <polygon id="Star-1-Copy-5" stroke="#FFFFFF" fill="#FDB913" points="14 17.75 10.1793959 19.7586105 10.9090663 15.5043052 7.81813264 12.4913895 12.0896979 11.8706948 14 8 15.9103021 11.8706948 20.1818674 12.4913895 17.0909337 15.5043052 17.8206041 19.7586105 "></polygon>
                        </g>
                    </g>
                </g>
            </g>
        </g>
    </g>
</svg>